<svg width="337" height="100" viewBox="0 0 337 100" fill="none" xmlns="http://www.w3.org/2000/svg">
<path d="M68.1328 47.0127C68.1328 49.2188 67.6318 50.981 66.6299 52.2993C65.6279 53.6089 64.2832 54.2637 62.5957 54.2637C61.0312 54.2637 59.7788 53.7495 58.8384 52.7212V59.4844H55.6348V39.7354H58.5879L58.7197 41.1855C59.6602 40.043 60.939 39.4717 62.5562 39.4717C64.2964 39.4717 65.6587 40.1221 66.6431 41.4229C67.6362 42.7148 68.1328 44.5122 68.1328 46.8149V47.0127ZM64.9424 46.7358C64.9424 45.312 64.6567 44.1826 64.0854 43.3477C63.5229 42.5127 62.7144 42.0952 61.6597 42.0952C60.3501 42.0952 59.4097 42.6357 58.8384 43.7168V50.0449C59.4185 51.1523 60.3677 51.7061 61.686 51.7061C62.7056 51.7061 63.501 51.2974 64.0723 50.48C64.6523 49.6538 64.9424 48.4058 64.9424 46.7358ZM71.9824 54V42.1084H69.8071V39.7354H71.9824V38.4302C71.9824 36.8481 72.4219 35.6265 73.3008 34.7651C74.1797 33.9038 75.4102 33.4731 76.9922 33.4731C77.5547 33.4731 78.1523 33.5522 78.7852 33.7104L78.7061 36.2153C78.3545 36.145 77.9458 36.1099 77.48 36.1099C75.9507 36.1099 75.186 36.8965 75.186 38.4697V39.7354H78.0864V42.1084H75.186V54H71.9824ZM99.6416 47.0127C99.6416 49.2188 99.1406 50.981 98.1387 52.2993C97.1367 53.6089 95.792 54.2637 94.1045 54.2637C92.54 54.2637 91.2876 53.7495 90.3472 52.7212V59.4844H87.1436V39.7354H90.0967L90.2285 41.1855C91.1689 40.043 92.4478 39.4717 94.0649 39.4717C95.8052 39.4717 97.1675 40.1221 98.1519 41.4229C99.145 42.7148 99.6416 44.5122 99.6416 46.8149V47.0127ZM96.4512 46.7358C96.4512 45.312 96.1655 44.1826 95.5942 43.3477C95.0317 42.5127 94.2231 42.0952 93.1685 42.0952C91.8589 42.0952 90.9185 42.6357 90.3472 43.7168V50.0449C90.9272 51.1523 91.8765 51.7061 93.1948 51.7061C94.2144 51.7061 95.0098 51.2974 95.5811 50.48C96.1611 49.6538 96.4512 48.4058 96.4512 46.7358ZM108.646 54.2637C106.616 54.2637 104.968 53.6265 103.702 52.3521C102.445 51.0688 101.817 49.3638 101.817 47.2368V46.8413C101.817 45.4175 102.089 44.1475 102.634 43.0312C103.188 41.9062 103.961 41.0317 104.955 40.4077C105.948 39.7837 107.055 39.4717 108.277 39.4717C110.219 39.4717 111.718 40.0913 112.772 41.3306C113.836 42.5698 114.368 44.3232 114.368 46.5908V47.8828H105.047C105.144 49.0605 105.535 49.9922 106.22 50.6777C106.915 51.3633 107.785 51.7061 108.831 51.7061C110.298 51.7061 111.494 51.1128 112.417 49.9263L114.144 51.5742C113.572 52.4268 112.808 53.0903 111.85 53.5649C110.9 54.0308 109.833 54.2637 108.646 54.2637ZM108.264 42.0425C107.385 42.0425 106.673 42.3501 106.128 42.9653C105.592 43.5806 105.249 44.4375 105.1 45.5361H111.204V45.2988C111.133 44.2266 110.848 43.418 110.347 42.873C109.846 42.3193 109.151 42.0425 108.264 42.0425ZM119.839 39.7354L119.931 41.3833C120.986 40.1089 122.37 39.4717 124.084 39.4717C127.055 39.4717 128.566 41.1724 128.619 44.5737V54H125.416V44.7583C125.416 43.853 125.218 43.1851 124.822 42.7544C124.436 42.3149 123.798 42.0952 122.911 42.0952C121.619 42.0952 120.656 42.6797 120.023 43.8486V54H116.82V39.7354H119.839ZM131.335 46.7622C131.335 44.5474 131.854 42.7808 132.891 41.4624C133.937 40.1353 135.321 39.4717 137.043 39.4717C138.669 39.4717 139.948 40.0386 140.88 41.1724L141.025 39.7354H143.912V53.5649C143.912 55.437 143.328 56.9136 142.159 57.9946C140.999 59.0757 139.43 59.6162 137.452 59.6162C136.406 59.6162 135.382 59.3965 134.38 58.957C133.387 58.5264 132.631 57.9595 132.113 57.2563L133.629 55.3315C134.613 56.5005 135.826 57.085 137.268 57.085C138.331 57.085 139.17 56.7949 139.786 56.2148C140.401 55.6436 140.708 54.7998 140.708 53.6836V52.7212C139.786 53.7495 138.555 54.2637 137.017 54.2637C135.347 54.2637 133.98 53.6001 132.917 52.2729C131.862 50.9458 131.335 49.1089 131.335 46.7622ZM134.525 47.0391C134.525 48.4717 134.815 49.6011 135.396 50.4272C135.984 51.2446 136.797 51.6533 137.834 51.6533C139.126 51.6533 140.084 51.0996 140.708 49.9922V43.7168C140.102 42.6357 139.153 42.0952 137.861 42.0952C136.806 42.0952 135.984 42.5127 135.396 43.3477C134.815 44.1826 134.525 45.4131 134.525 47.0391ZM153.497 54.2637C151.466 54.2637 149.818 53.6265 148.553 52.3521C147.296 51.0688 146.667 49.3638 146.667 47.2368V46.8413C146.667 45.4175 146.94 44.1475 147.485 43.0312C148.039 41.9062 148.812 41.0317 149.805 40.4077C150.798 39.7837 151.906 39.4717 153.127 39.4717C155.07 39.4717 156.568 40.0913 157.623 41.3306C158.687 42.5698 159.218 44.3232 159.218 46.5908V47.8828H149.897C149.994 49.0605 150.385 49.9922 151.071 50.6777C151.765 51.3633 152.635 51.7061 153.681 51.7061C155.149 51.7061 156.344 51.1128 157.267 49.9263L158.994 51.5742C158.423 52.4268 157.658 53.0903 156.7 53.5649C155.751 54.0308 154.683 54.2637 153.497 54.2637ZM153.114 42.0425C152.235 42.0425 151.523 42.3501 150.979 42.9653C150.442 43.5806 150.1 44.4375 149.95 45.5361H156.054V45.2988C155.984 44.2266 155.698 43.418 155.197 42.873C154.696 42.3193 154.002 42.0425 153.114 42.0425ZM169.185 42.6621C168.763 42.5918 168.328 42.5566 167.88 42.5566C166.412 42.5566 165.423 43.1191 164.914 44.2441V54H161.71V39.7354H164.769L164.848 41.3306C165.621 40.0913 166.693 39.4717 168.064 39.4717C168.521 39.4717 168.899 39.5332 169.198 39.6562L169.185 42.6621Z" fill="white"/>
<path d="M34.1422 31.8578C30.3647 28.0803 25.3422 26 20 26C14.6578 26 9.63531 28.0803 5.85781 31.8578C2.08031 35.6353 0 40.6578 0 46C0 51.3422 2.08039 56.3646 5.85781 60.1422C9.63523 63.9198 14.6578 66 20 66C25.3422 66 30.3647 63.9197 34.1422 60.1422C37.9197 56.3647 40 51.3422 40 46C40 40.6578 37.9196 35.6354 34.1422 31.8578Z" fill="#33CC95"/>
<g clip-path="url(#clip0)">
<path d="M20.5714 34V59.1429" stroke="white" stroke-width="2" stroke-linecap="round" stroke-linejoin="round"/>
<path d="M26.2857 38.5714H17.7143C16.6534 38.5714 15.636 38.9929 14.8859 39.743C14.1357 40.4931 13.7143 41.5106 13.7143 42.5714C13.7143 43.6323 14.1357 44.6497 14.8859 45.3999C15.636 46.15 16.6534 46.5714 17.7143 46.5714H23.4286C24.4894 46.5714 25.5069 46.9929 26.257 47.743C27.0072 48.4931 27.4286 49.5106 27.4286 50.5714C27.4286 51.6323 27.0072 52.6497 26.257 53.3999C25.5069 54.15 24.4894 54.5714 23.4286 54.5714H13.7143" stroke="white" stroke-width="2" stroke-linecap="round" stroke-linejoin="round"/>
</g>
<defs>
<clipPath id="clip0">
<rect width="27.4286" height="27.4286" fill="white" transform="translate(6.85715 32.8571)"/>
</clipPath>
</defs>
</svg>
